<?xml version="1.0" encoding="iso-8859-1"?>
<!-- Generator: Adobe Illustrator 19.0.0, SVG Export Plug-In . SVG Version: 6.00 Build 0)  -->
<svg version="1.1" id="Capa_1" xmlns="http://www.w3.org/2000/svg" xmlns:xlink="http://www.w3.org/1999/xlink" x="0px" y="0px"
	 viewBox="0 0 437.84 437.84" style="enable-background:new 0 0 437.84 437.84;" xml:space="preserve">
<g>
	<g>
		<path d="M346.88,432.24L334.32,5.28c-0.087-2.942-2.497-5.281-5.44-5.28h-220c-2.943-0.001-5.353,2.338-5.44,5.28L90.96,432.24
			c-0.088,3.003,2.274,5.509,5.278,5.598c0.054,0.002,0.108,0.002,0.162,0.002h66c2.571-0.002,4.791-1.804,5.32-4.32l51.24-246.2
			l51.24,246.2c0.529,2.516,2.749,4.318,5.32,4.32h65.92c3.004,0.001,5.441-2.433,5.442-5.438
			C346.882,432.348,346.882,432.294,346.88,432.24z M326.56,110.44c-13-5.28-19.48-43.2-20.36-73.28h18.2L326.56,110.44z
			 M289.2,10.92h34.4l0.48,15.52H289.2V10.92z M224.4,10.92h53.96v15.4l-47.08,0.12h-6.88V10.92z M225.84,37.32v73
			c-8.147-2.421-13.741-9.901-13.76-18.4v-54.6H225.84z M157.36,10.92h56v15.4l-6.72,0.12h-49.28V10.92z M114.32,10.92h32.16v15.4
			h-32.64L114.32,10.92z M113.52,37.2h18.2c-0.88,30.08-7.36,68-20.36,73.28L113.52,37.2z M279.96,426.92l-55.68-267.4
			c-0.628-2.938-3.518-4.811-6.456-4.184c-2.097,0.448-3.736,2.086-4.184,4.184l-55.68,267.4h-56l9-305.16
			c26.88-4,31-62.84,31.56-84.6h58.68v54.76c0.022,16.604,13.476,30.058,30.08,30.08c3.004,0,5.44-2.436,5.44-5.44v-79.4h58.56
			c0.6,21.76,4.72,80.8,31.68,84.6l8.88,305.16H279.96z"/>
	</g>
</g>
<g>
</g>
<g>
</g>
<g>
</g>
<g>
</g>
<g>
</g>
<g>
</g>
<g>
</g>
<g>
</g>
<g>
</g>
<g>
</g>
<g>
</g>
<g>
</g>
<g>
</g>
<g>
</g>
<g>
</g>
</svg>
