<?xml version="1.0" encoding="iso-8859-1"?>
<!-- Generator: Adobe Illustrator 18.1.1, SVG Export Plug-In . SVG Version: 6.00 Build 0)  -->
<svg version="1.1" id="Capa_1" xmlns="http://www.w3.org/2000/svg" xmlns:xlink="http://www.w3.org/1999/xlink" x="0px" y="0px"
	 viewBox="0 0 403.642 403.642" style="enable-background:new 0 0 403.642 403.642;" xml:space="preserve">
<g>
	<path style="fill:#010002;" d="M1.603,133.819l38.879,52.364c2.439,3.292,6.95,4.259,10.502,2.243l49.316-27.678l1.398,210.587
		c0.033,4.471,3.658,8.072,8.129,8.072h192.948c4.487,0,8.129-3.633,8.129-8.129V163.244l47.284,18.184
		c3.642,1.398,7.763,0.016,9.819-3.292l34.408-55.315c2.219-3.568,1.357-8.25-2.008-10.778l-93.836-70.873
		c-0.74-0.561-1.577-0.992-2.463-1.268l-48.682-15.298c-4.251-1.325-8.844,1.04-10.193,5.316c-1.349,4.284,1.032,8.844,5.316,10.193
		l47.341,14.875l86.789,65.541l-26.938,43.301l-52.064-20.021c-2.504-0.959-5.308-0.626-7.519,0.886
		c-2.211,1.52-3.528,4.024-3.528,6.698v211.749H117.899l-1.431-216.277c-0.016-2.878-1.553-5.527-4.048-6.974
		c-2.487-1.455-5.552-1.471-8.064-0.065l-55.095,30.921l-30.214-40.7l87.309-79.002l39.472-10.583
		c4.341-1.162,6.909-5.617,5.747-9.958s-5.633-6.926-9.958-5.747l-41.366,11.087c-1.244,0.333-2.398,0.959-3.349,1.829
		L2.676,122.951C-0.429,125.755-0.892,130.461,1.603,133.819z"/>
	<path style="fill:#010002;" d="M231.691,51.484c-0.041,0.13-5.471,13.225-33.579,13.68c-27.954,0.423-33.01-12.843-33.335-13.713
		c-1.357-4.202-5.812-6.56-10.071-5.284c-4.3,1.292-6.739,5.828-5.438,10.128c0.309,1.04,8.007,25.142,47.503,25.142
		c0.528,0,1.065-0.008,1.601-0.016c40.586-0.658,48.487-24.004,48.804-24.995c1.366-4.276-1-8.852-5.275-10.218
		C237.657,44.843,233.064,47.209,231.691,51.484z"/>
</g>
<g>
</g>
<g>
</g>
<g>
</g>
<g>
</g>
<g>
</g>
<g>
</g>
<g>
</g>
<g>
</g>
<g>
</g>
<g>
</g>
<g>
</g>
<g>
</g>
<g>
</g>
<g>
</g>
<g>
</g>
</svg>
